<?xml version="1.0" standalone="no"?>
<!DOCTYPE svg PUBLIC "-//W3C//DTD SVG 20010904//EN"
 "http://www.w3.org/TR/2001/REC-SVG-20010904/DTD/svg10.dtd">
<svg version="1.0" xmlns="http://www.w3.org/2000/svg"
 width="264.000000pt" height="268.000000pt" viewBox="0 0 264.000000 268.000000"
 preserveAspectRatio="xMidYMid meet">
<metadata>
Created by potrace 1.10, written by Peter Selinger 2001-2011
</metadata>
<g transform="translate(0.000000,268.000000) scale(0.100000,-0.100000)"
fill="#000000" stroke="none">
<path d="M1321 2524 c-12 -15 -21 -33 -21 -41 0 -38 44 -78 74 -67 24 9 20 34
-5 31 -28 -3 -48 27 -33 51 6 9 21 17 32 17 28 0 40 14 22 25 -26 16 -48 11
-69 -16z"/>
<path d="M1200 2537 c0 -1 4 -17 9 -35 12 -40 1 -41 -27 -2 -36 49 -54 40 -47
-22 8 -68 12 -78 26 -78 8 0 10 14 6 43 l-6 42 35 -38 c19 -21 38 -35 43 -33
4 3 4 27 0 53 -4 26 -8 54 -8 61 -1 9 -31 19 -31 9z"/>
<path d="M1416 2478 c-3 -34 -5 -62 -4 -63 2 -1 20 -5 41 -8 28 -4 37 -2 37 9
0 8 -10 14 -25 14 -16 0 -25 6 -25 16 0 12 7 15 25 12 17 -4 25 -1 25 8 0 8
-9 14 -20 14 -12 0 -20 7 -20 16 0 12 6 15 24 10 14 -3 28 -1 31 5 9 14 7 15
-41 23 l-41 6 -7 -62z"/>
<path d="M1527 2464 c-9 -31 -14 -61 -11 -65 11 -19 22 -8 29 29 l7 37 17 -44
c9 -24 21 -46 27 -48 5 -2 17 20 24 49 18 64 18 70 4 75 -6 2 -15 -14 -20 -34
l-10 -38 -15 44 c-8 25 -20 46 -26 48 -5 2 -17 -22 -26 -53z"/>
<path d="M1016 2494 c-34 -33 -5 -114 40 -114 35 0 54 20 54 59 0 61 -56 94
-94 55z m64 -33 c14 -27 2 -53 -24 -49 -30 4 -37 68 -7 68 11 0 25 -9 31 -19z"/>
<path d="M937 2474 c-3 -4 1 -23 9 -43 9 -20 20 -47 25 -60 7 -16 13 -21 20
-14 6 6 2 29 -12 66 -21 55 -29 64 -42 51z"/>
<path d="M1660 2465 c0 -8 7 -15 15 -15 12 0 11 -8 -6 -47 -13 -31 -16 -50
-10 -56 13 -13 14 -12 33 38 10 26 22 40 34 40 31 0 25 21 -11 38 -44 21 -55
21 -55 2z"/>
<path d="M868 2441 c-40 -17 -55 -48 -18 -36 17 5 24 -1 41 -39 14 -32 24 -43
34 -39 13 4 11 13 -10 50 -29 53 -29 53 -10 53 16 0 21 16 8 23 -5 2 -25 -3
-45 -12z"/>
<path d="M1746 2379 c-19 -34 -25 -54 -18 -61 7 -7 14 -3 22 12 14 26 24 19
25 -17 0 -14 6 -28 13 -30 7 -3 12 4 12 19 0 13 9 29 20 36 31 19 26 59 -10
77 -16 8 -30 15 -32 15 -2 0 -16 -23 -32 -51z m69 2 c3 -5 1 -13 -5 -16 -15
-9 -43 3 -35 15 8 13 32 13 40 1z"/>
<path d="M773 2387 c-7 -8 -4 -34 6 -74 12 -48 19 -60 30 -54 7 5 11 14 7 19
-8 13 30 36 44 27 6 -3 15 -3 21 1 11 6 -8 26 -72 74 -21 15 -29 17 -36 7z
m57 -59 c0 -17 -28 -7 -33 11 -4 17 -2 18 14 8 10 -6 19 -15 19 -19z"/>
<path d="M1851 2318 l-39 -52 31 -23 c21 -16 34 -20 41 -13 7 7 3 15 -13 26
-16 11 -19 20 -12 27 7 7 15 6 25 -2 8 -7 20 -10 26 -6 8 5 4 12 -9 22 -30 20
-15 38 15 19 28 -19 34 -20 33 -3 0 6 -13 22 -29 35 l-29 22 -40 -52z"/>
<path d="M677 2322 c-10 -10 -17 -28 -17 -39 0 -26 44 -73 69 -73 23 0 51 25
51 46 0 18 -9 18 -31 -2 -14 -12 -22 -13 -38 -4 -24 12 -28 48 -6 56 19 8 20
34 2 34 -8 0 -21 -8 -30 -18z"/>
<path d="M605 2260 c-4 -7 5 -23 24 -40 34 -32 39 -48 15 -57 -9 -3 -28 7 -49
27 -24 23 -35 28 -40 19 -10 -16 57 -79 84 -79 24 0 51 26 51 49 0 24 -76 96
-85 81z"/>
<path d="M1915 2241 c-7 -13 32 -34 46 -26 6 4 3 12 -8 21 -22 16 -30 17 -38
5z"/>
<path d="M2017 2178 c-34 -29 -45 -44 -38 -51 8 -8 15 -7 23 1 20 20 30 13 23
-17 -7 -34 19 -83 40 -75 17 7 40 -32 25 -41 -11 -7 -4 -25 8 -25 4 0 25 23
46 51 49 66 39 79 -41 56 -32 -8 -59 -15 -60 -13 -1 1 3 19 9 39 10 33 15 37
46 37 30 0 33 2 21 16 -9 11 -23 14 -48 10 l-36 -6 24 20 c15 13 21 24 15 30
-6 6 -28 -6 -57 -32z m113 -133 c-7 -8 -16 -12 -21 -9 -13 8 -1 24 18 24 13 0
13 -3 3 -15z"/>
<path d="M1166 2153 c-3 -4 -16 -8 -27 -10 -11 -2 -28 -11 -39 -21 -34 -31
-17 -172 20 -172 6 0 10 5 10 10 0 6 -8 10 -17 10 -14 0 -15 2 -5 9 11 7 11 9
0 13 -7 3 -14 19 -15 34 -1 16 1 23 4 17 2 -7 9 -13 14 -13 5 0 2 11 -7 25
-10 15 -13 32 -9 42 7 16 9 15 15 -7 7 -23 8 -22 10 10 l2 35 10 -30 c9 -28
17 -77 21 -132 1 -13 6 -23 11 -23 8 0 4 33 -9 75 -4 14 -2 13 9 -5 8 -14 15
-37 16 -52 0 -22 -5 -28 -22 -28 -21 -1 -21 -2 -5 -11 44 -26 63 42 27 96 -24
36 -26 98 -4 119 8 9 11 16 6 16 -5 0 -12 -3 -16 -7z m-19 -35 c-3 -8 -6 -5
-6 6 -1 11 2 17 5 13 3 -3 4 -12 1 -19z"/>
<path d="M1427 2152 c6 -4 17 -20 23 -36 9 -25 7 -37 -15 -81 -28 -59 -31 -87
-11 -105 11 -8 20 -9 33 -1 16 9 16 10 -4 11 -27 0 -30 29 -7 75 15 32 15 33
-3 -42 -3 -13 -1 -23 3 -23 5 0 10 10 11 23 8 82 13 115 22 137 9 23 10 22 11
-15 1 -36 2 -38 11 -16 11 29 3 61 -17 62 -27 3 -32 4 -40 12 -4 4 -12 7 -18
7 -7 0 -7 -3 1 -8z m40 -34 c-3 -8 -6 -5 -6 6 -1 11 2 17 5 13 3 -3 4 -12 1
-19z"/>
<path d="M486 2123 l-25 -27 52 -38 52 -39 17 22 c58 70 -34 149 -96 82z m84
-22 c5 -9 5 -23 0 -30 -6 -11 -15 -9 -40 9 -30 21 -31 24 -15 36 20 15 42 9
55 -15z"/>
<path d="M1518 2088 c-3 -13 -9 -32 -13 -43 -6 -16 -5 -17 4 -5 9 12 11 9 7
-15 -2 -16 -5 -32 -6 -35 -1 -3 -2 -8 -1 -12 0 -5 -6 -8 -14 -8 -8 0 -15 -4
-15 -10 0 -18 19 -10 36 15 11 16 16 44 15 77 -1 57 -6 70 -13 36z"/>
<path d="M1194 2059 c-9 -10 -11 -19 -5 -23 5 -4 13 3 16 15 5 15 10 18 15 9
9 -15 1 -101 -11 -114 -15 -17 -10 -26 15 -26 14 0 28 -4 31 -10 3 -5 -1 -10
-9 -10 -8 0 -31 -7 -50 -16 -48 -23 -79 -12 -116 40 -34 51 -37 61 -13 52 16
-6 16 -6 0 11 -9 10 -23 34 -31 53 -11 25 -15 29 -16 15 0 -11 7 -31 16 -43 9
-13 14 -25 11 -28 -8 -8 -57 7 -57 18 0 6 7 7 16 4 14 -5 15 -4 5 8 -8 9 -10
25 -6 38 6 18 5 21 -6 11 -7 -7 -13 -20 -14 -30 0 -10 -4 -24 -8 -30 -5 -8 4
-17 26 -27 19 -7 47 -31 63 -52 16 -22 36 -44 44 -51 21 -17 66 -16 95 3 19
13 28 14 39 5 11 -9 15 -7 19 11 8 29 1 38 -30 38 -20 0 -23 3 -14 14 6 7 14
34 17 60 5 31 14 52 28 62 20 14 19 15 -17 12 -21 -1 -45 -10 -53 -19z"/>
<path d="M1350 2062 c14 -11 23 -33 27 -62 3 -25 10 -51 16 -57 7 -10 3 -13
-16 -13 -31 0 -38 -9 -30 -38 4 -18 8 -20 19 -11 11 9 20 8 39 -5 50 -33 94
-20 136 40 17 25 45 50 65 59 18 8 34 19 34 24 0 15 -9 14 -26 -4 -16 -15 -54
-21 -54 -7 0 4 7 16 15 26 8 11 15 29 14 40 -1 16 -3 14 -9 -8 -5 -16 -19 -40
-32 -53 -17 -18 -18 -23 -5 -17 24 9 21 -4 -11 -51 -36 -52 -73 -66 -114 -42
-16 9 -36 17 -44 17 -8 0 -14 5 -14 10 0 6 11 10 25 10 26 0 32 9 16 26 -11
12 -21 105 -10 98 5 -3 6 3 2 12 -4 12 -3 15 5 10 7 -4 12 -15 12 -24 0 -13 2
-14 13 -3 16 16 -13 34 -61 38 -34 3 -34 3 -12 -15z"/>
<path d="M423 2035 l-22 -34 55 -32 c59 -33 58 -34 85 15 8 12 8 21 0 29 -7 7
-14 2 -22 -16 -7 -15 -17 -23 -25 -20 -10 4 -11 10 -3 25 7 13 7 24 1 30 -7 7
-12 3 -17 -11 -3 -12 -10 -21 -14 -21 -17 0 -19 13 -5 34 13 20 11 36 -5 36
-3 0 -16 -16 -28 -35z"/>
<path d="M1605 2052 c4 -13 2 -29 -5 -37 -16 -19 -1 -19 24 0 17 13 17 14 -4
37 l-22 23 7 -23z"/>
<path d="M2163 1987 c-29 -15 -53 -35 -53 -43 0 -17 12 -18 28 -2 17 17 25 3
12 -22 -14 -25 4 -80 25 -80 17 0 28 -31 16 -43 -5 -5 -7 -16 -4 -23 3 -9 21
1 58 33 69 61 64 77 -23 67 -59 -6 -65 -5 -59 10 4 10 7 20 7 22 0 2 11 4 24
4 23 0 57 23 56 38 -1 4 -9 21 -18 37 l-17 31 -52 -29z m57 -39 c0 -12 -28 -9
-36 3 -3 6 0 15 7 20 13 7 28 -5 29 -23z m20 -113 c-12 -15 -30 -12 -30 6 0 5
10 9 21 9 18 0 19 -2 9 -15z"/>
<path d="M362 1918 c-22 -28 -18 -65 9 -73 14 -5 28 0 44 15 17 16 25 18 30 9
5 -7 1 -17 -8 -24 -11 -8 -13 -16 -6 -26 8 -12 13 -10 29 10 24 28 25 44 4 65
-21 21 -33 20 -61 -6 -23 -22 -47 -18 -25 4 14 14 16 38 3 38 -5 0 -13 -6 -19
-12z"/>
<path d="M312 1794 c-29 -62 73 -118 112 -62 21 30 20 44 -4 68 -26 26 -46 25
-53 -2 -8 -30 3 -45 19 -24 8 12 14 14 19 6 21 -33 -39 -56 -65 -25 -10 12
-10 18 0 30 12 14 6 35 -9 35 -4 0 -13 -12 -19 -26z"/>
<path d="M1082 1770 c-32 -56 -101 -108 -216 -160 l-98 -45 5 -245 c5 -263 11
-299 62 -400 31 -61 130 -164 188 -195 20 -11 37 -22 37 -25 0 -3 -45 -6 -100
-6 -91 -2 -99 0 -102 18 -3 18 -14 19 -280 21 -152 1 -276 1 -275 1 1 -1 47
-22 102 -47 91 -42 97 -47 75 -56 -14 -5 -59 -25 -100 -45 l-75 -35 208 -1
207 0 0 70 0 69 58 17 c31 9 60 18 65 21 4 2 7 -5 7 -16 0 -18 -6 -21 -44 -21
-75 0 -76 -1 -76 -102 0 -49 4 -87 9 -84 29 18 340 39 576 39 236 0 537 -21
567 -39 9 -6 1 163 -8 178 -3 4 -27 8 -55 8 -42 0 -49 3 -49 20 0 16 4 18 24
10 13 -4 42 -14 65 -20 l41 -11 0 -69 0 -70 213 0 212 0 -90 41 c-49 22 -94
44 -98 48 -4 4 32 25 80 46 48 21 91 41 95 44 4 3 -119 6 -273 6 l-279 0 0
-22 c0 -22 -3 -22 -102 -20 -78 1 -102 -1 -101 -10 2 -7 -2 -13 -7 -14 -16 -2
-47 -1 -77 1 -27 2 -26 2 7 12 19 5 42 10 52 12 27 4 152 100 190 147 97 118
118 206 118 504 l0 221 -82 37 c-106 48 -169 95 -214 157 l-36 50 -201 0 -202
0 -23 -40z m438 -46 c31 -50 109 -108 201 -151 l79 -37 0 -188 0 -188 -495 0
-495 0 0 188 0 187 101 48 c102 48 199 127 199 162 0 13 26 15 194 15 l194 0
22 -36z m-230 -809 l0 -215 -79 0 c-78 0 -80 1 -153 49 -134 90 -213 200 -236
329 l-9 52 238 0 239 0 0 -215z m504 178 c-25 -145 -102 -252 -251 -352 -60
-40 -65 -41 -142 -41 l-81 0 0 215 0 215 240 0 241 0 -7 -37z m-1088 -399 c-3
-9 -6 -39 -6 -68 l0 -52 -94 -3 c-52 -1 -110 1 -130 4 l-36 7 41 30 c47 34 44
42 -26 77 l-40 20 149 1 c131 0 147 -2 142 -16z m1489 6 c-3 -5 -13 -10 -21
-10 -9 0 -22 -6 -30 -14 -7 -8 -19 -16 -26 -18 -19 -7 -2 -36 34 -58 l33 -20
-35 -1 c-40 -2 -224 2 -227 4 0 1 -3 25 -5 52 -2 28 -7 55 -11 62 -5 8 33 11
144 12 102 1 149 -2 144 -9z m-1079 -15 c31 -16 33 -15 -38 -20 -15 -1 -34 -8
-43 -15 -10 -8 -15 -9 -15 -1 0 20 5 25 25 29 11 1 24 7 29 12 12 12 8 13 42
-5z m244 -11 c0 -2 -16 -4 -36 -4 -19 0 -33 4 -30 8 5 8 66 4 66 -4z m-112 -1
c-10 -2 -26 -2 -35 0 -10 3 -2 5 17 5 19 0 27 -2 18 -5z m192 3 c0 -2 -11 -6
-25 -8 -14 -3 -25 -1 -25 3 0 5 11 9 25 9 14 0 25 -2 25 -4z m-527 -16 c-11
-5 -49 -10 -84 -12 -39 -2 -64 -8 -67 -15 -2 -9 7 -13 26 -13 22 0 31 -6 35
-22 8 -29 1 -38 -29 -38 -19 0 -24 5 -24 24 0 14 -4 28 -10 31 -5 3 -10 17
-10 29 0 23 3 24 93 24 62 1 85 -2 70 -8z m75 3 c-10 -2 -26 -2 -35 0 -10 3
-2 5 17 5 19 0 27 -2 18 -5z m718 -1 c-5 -9 -103 -8 -113 2 -3 3 22 6 56 6 34
0 60 -4 57 -8z m123 -5 c-18 -14 -109 -10 -109 4 0 5 28 9 63 9 51 -1 59 -3
46 -13z m-744 -37 c19 -37 19 -46 0 -30 -12 10 -18 10 -30 0 -9 -7 -18 -10
-21 -7 -6 5 23 67 31 67 2 0 11 -13 20 -30z m46 13 c1 -17 2 -17 6 0 8 31 33
20 32 -15 0 -18 -3 -27 -6 -19 -5 11 -7 11 -14 0 -8 -12 -11 -11 -19 1 -9 13
-10 13 -10 0 0 -13 -1 -13 -10 0 -15 23 -12 50 5 50 8 0 16 -8 16 -17z m104
-13 c0 -18 -6 -26 -23 -28 -24 -4 -38 18 -28 44 3 9 15 14 28 12 17 -2 23 -10
23 -28z m43 18 c9 -9 12 -9 12 0 0 7 5 12 10 12 6 0 10 -13 10 -30 0 -33 -14
-39 -29 -12 -10 16 -10 16 -11 0 0 -10 -4 -18 -10 -18 -5 0 -10 14 -10 30 0
32 9 37 28 18z m102 1 c0 -6 -7 -8 -16 -5 -9 3 -20 4 -24 1 -11 -7 -1 -35 12
-35 5 0 6 5 3 10 -3 6 1 10 9 10 9 0 16 -7 16 -15 0 -9 -9 -15 -25 -15 -27 0
-41 20 -31 45 6 17 56 21 56 4z m110 -6 c0 -7 5 -13 10 -13 6 0 10 7 10 15 0
8 5 15 10 15 6 0 10 -13 10 -29 0 -17 -4 -33 -10 -36 -5 -3 -10 1 -10 9 0 9
-4 16 -10 16 -5 0 -10 -4 -10 -10 0 -5 -4 -10 -10 -10 -5 0 -10 11 -10 25 0
14 -4 25 -10 25 -5 0 -10 -11 -10 -25 0 -14 -4 -25 -10 -25 -5 0 -10 12 -10
26 0 14 -4 23 -10 19 -5 -3 -10 -1 -10 5 0 6 16 10 40 8 25 -1 40 -7 40 -15z
m-540 -40 c0 -19 -29 -28 -43 -14 -8 8 -6 11 9 11 15 0 13 3 -10 15 -20 11
-33 12 -45 4 -13 -8 -11 -9 8 -3 16 4 21 3 17 -5 -4 -6 -15 -11 -24 -12 -10
-1 -7 -4 8 -8 l25 -7 -27 -6 c-22 -4 -28 -2 -28 13 0 9 -3 25 -6 34 -5 13 0
16 34 14 23 -2 45 0 49 5 9 8 33 -22 33 -41z m51 38 c-8 -5 -12 -18 -8 -30 3
-14 0 -21 -9 -21 -8 0 -14 9 -14 20 0 11 -4 20 -10 20 -5 0 -10 5 -10 10 0 6
15 10 33 10 22 0 28 -3 18 -9z m579 -1 c-21 -7 -22 -8 -5 -10 20 -1 20 -1 0
-10 -17 -7 -17 -9 -2 -9 27 -1 20 -21 -8 -21 -21 0 -25 5 -25 30 0 27 3 30 33
29 30 -1 31 -1 7 -9z m98 -22 c3 -25 0 -28 -28 -28 -25 0 -31 3 -26 16 3 9 6
22 6 31 0 9 8 13 23 11 16 -2 23 -11 25 -30z m52 12 c-17 -5 -19 -8 -7 -9 9
-1 17 -5 17 -11 0 -5 -7 -7 -15 -4 -8 4 -15 1 -15 -4 0 -6 8 -13 18 -15 10 -3
6 -5 -10 -6 -18 -1 -28 4 -28 13 0 31 13 46 39 45 l26 -1 -25 -8z m64 3 c4 -4
23 -6 42 -4 19 1 34 -2 34 -8 0 -6 -4 -11 -10 -11 -5 0 -10 -9 -10 -20 0 -11
-6 -20 -14 -20 -9 0 -12 8 -8 26 4 20 1 25 -9 22 -8 -3 -13 -12 -11 -20 3 -18
-21 -30 -43 -22 -24 10 -17 26 8 19 21 -7 21 -6 3 7 -10 8 -16 20 -12 26 8 14
19 15 30 5z m-379 -43 c3 -5 -1 -10 -9 -10 -9 0 -16 5 -16 10 0 6 4 10 9 10 6
0 13 -4 16 -10z"/>
<path d="M1243 1616 c-26 -19 -47 -78 -38 -106 5 -14 2 -20 -9 -20 -9 0 -16
-4 -16 -10 0 -5 -10 -10 -23 -10 -38 0 -206 -124 -238 -176 -18 -30 -19 -33
-3 -49 12 -12 31 -16 70 -14 44 2 58 -1 77 -19 21 -20 34 -22 145 -22 79 0
122 4 122 11 0 5 -6 7 -12 3 -10 -5 -10 -4 -2 5 7 8 19 9 35 3 13 -5 67 -6
119 -2 52 4 127 6 167 6 40 -1 73 1 73 5 0 3 -29 6 -64 6 -66 1 -90 8 -81 24
8 12 87 12 121 -1 54 -21 33 -2 -38 34 -44 22 -90 37 -115 39 -27 1 -43 7 -43
15 0 6 -22 28 -49 47 -65 47 -84 76 -71 110 16 41 12 72 -12 100 -29 32 -84
42 -115 21z m92 -36 c4 -7 -8 -8 -37 -4 -57 9 -61 14 -10 14 22 0 44 -5 47
-10z m-89 -39 c9 7 28 8 56 3 24 -5 49 -8 56 -7 9 1 11 -6 6 -21 -17 -54 -25
-68 -38 -63 -7 3 -19 1 -27 -4 -10 -6 -10 -9 -1 -9 6 0 12 -5 12 -11 0 -6 -10
-9 -22 -7 -23 3 -72 64 -63 78 3 5 0 10 -7 12 -7 3 -9 11 -4 24 6 13 10 15 13
6 4 -10 8 -10 19 -1z m6 -128 c-4 -21 55 -9 82 16 l24 22 18 -24 c11 -13 39
-36 62 -51 48 -30 52 -53 14 -72 -17 -8 -20 -13 -10 -17 8 -4 6 -6 -6 -6 -15
-1 -17 4 -11 26 6 26 5 27 -12 11 -10 -8 -26 -14 -35 -13 -10 2 -17 0 -17 -3
3 -18 -2 -32 -10 -32 -12 0 -1 51 13 56 6 2 23 5 38 8 15 3 32 7 37 10 5 3 7
-4 4 -16 -4 -20 -3 -21 7 -5 14 22 3 40 -21 34 -14 -4 -19 0 -20 16 -2 22 -2
21 -6 0 -5 -27 -20 -30 -26 -5 -4 13 -5 13 -6 -4 0 -12 -8 -27 -16 -34 -8 -7
-15 -20 -15 -30 0 -11 -12 -22 -31 -29 -39 -13 -52 -6 -36 20 10 18 9 23 -10
36 -17 12 -23 25 -23 54 0 24 -5 39 -12 40 -10 0 -10 2 0 6 8 3 5 10 -10 22
-13 11 -18 23 -13 30 8 14 51 -45 47 -66z m-34 18 c0 -3 0 -8 1 -11 1 -3 4
-23 6 -46 4 -36 2 -42 -21 -53 -15 -6 -47 -15 -72 -18 l-46 -6 21 26 c12 16
19 35 16 47 -8 30 -23 24 -23 -8 0 -16 -8 -36 -18 -45 -16 -15 -22 -15 -70 -1
l-52 16 76 55 c95 69 142 88 166 66 10 -8 17 -18 16 -22z m-190 -132 c37 -14
111 -10 169 8 47 15 56 15 63 3 6 -9 6 -16 0 -18 -6 -2 -10 -10 -10 -17 0 -10
-26 -15 -107 -19 -60 -3 -133 -7 -163 -8 -46 -3 -55 0 -58 15 -2 10 4 27 14
38 17 19 36 18 92 -2z m587 -9 l40 -19 -40 0 c-23 -1 -46 -6 -53 -13 -9 -9
-21 -8 -52 2 -44 15 -55 24 -45 40 10 16 107 10 150 -10z m-210 -8 c-3 -3 -11
0 -18 7 -9 10 -8 11 6 5 10 -3 15 -9 12 -12z m95 -28 c22 -9 40 -20 40 -25 0
-5 -39 -8 -87 -7 l-88 2 80 6 80 6 -77 2 c-86 2 -118 10 -96 23 22 14 105 10
148 -7z m-188 -11 c-12 14 -10 15 17 4 34 -12 42 -28 14 -25 -10 1 -67 0 -128
-2 l-110 -4 90 -6 90 -6 -93 -2 c-79 -2 -96 1 -110 16 -10 10 -12 11 -7 2 9
-13 8 -13 -8 -1 -10 8 -14 18 -10 22 15 15 206 15 238 0 27 -13 29 -13 17 2z"/>
<path d="M1310 1500 c0 -5 4 -10 9 -10 6 0 13 5 16 10 3 6 -1 10 -9 10 -9 0
-16 -4 -16 -10z"/>
<path d="M1180 1456 c0 -2 8 -10 18 -17 15 -13 16 -12 3 4 -13 16 -21 21 -21
13z"/>
<path d="M1523 1293 c-7 -2 -13 -10 -13 -16 0 -8 4 -7 12 1 19 19 32 14 17 -5
-11 -15 -11 -16 1 -5 8 6 25 12 40 12 20 0 22 2 10 10 -16 10 -47 12 -67 3z"/>
<path d="M951 1052 l-94 -36 32 -15 c27 -13 42 -13 106 -2 60 10 87 10 133 0
31 -7 65 -11 76 -10 17 3 18 -3 14 -78 -4 -69 -2 -81 11 -81 14 0 15 12 11 86
-5 79 -3 87 14 94 14 5 -7 16 -81 43 -55 20 -106 37 -114 36 -8 0 -56 -17
-108 -37z m151 -11 c4 -3 -13 -6 -38 -6 -38 0 -42 2 -27 13 16 11 49 8 65 -7z"/>
<path d="M980 981 c-20 -5 -26 -15 -30 -46 l-6 -40 118 0 118 0 0 37 c0 31 -4
37 -31 47 -35 12 -129 13 -169 2z m166 -34 c4 -4 5 -9 3 -11 -5 -5 -67 -8
-126 -7 -43 1 -58 15 -25 25 24 7 140 2 148 -7z"/>
<path d="M1472 1092 c-73 -16 -74 -17 -68 -44 3 -15 1 -28 -4 -28 -6 0 -10 -4
-10 -8 0 -5 44 -14 98 -19 92 -11 98 -10 120 10 17 16 22 17 22 5 0 -8 -10
-24 -22 -35 -22 -20 -26 -21 -118 -8 -52 8 -98 11 -103 8 -5 -3 -7 -18 -5 -34
3 -16 1 -29 -4 -29 -4 0 -8 -4 -8 -9 0 -12 48 -21 139 -26 40 -2 76 -7 79 -10
3 -3 18 7 34 22 20 19 28 22 28 12 0 -9 -12 -27 -27 -41 l-28 -26 -90 14 c-49
7 -101 13 -115 13 -50 0 11 -16 113 -29 l99 -13 25 25 c13 14 28 41 33 62 7
32 6 36 -8 32 -10 -3 -59 -17 -111 -30 l-94 -25 -28 22 c-33 26 -40 54 -10 37
11 -5 22 -14 25 -19 4 -5 26 -3 53 5 25 8 59 14 74 14 15 0 30 4 33 9 3 5 23
12 43 16 34 6 36 8 20 20 -9 6 -17 19 -17 28 0 31 -29 34 -112 15 -76 -18 -81
-18 -99 -2 -10 9 -19 22 -19 28 0 6 7 3 16 -5 16 -17 14 -17 163 17 24 5 24 5
-8 25 -17 10 -32 19 -34 18 -1 -1 -35 -8 -75 -17z"/>
<path d="M790 580 c0 -5 5 -10 10 -10 6 0 10 5 10 10 0 6 -4 10 -10 10 -5 0
-10 -4 -10 -10z"/>
<path d="M1200 620 c0 -13 5 -20 13 -17 6 2 12 10 12 17 0 7 -6 15 -12 18 -8
2 -13 -5 -13 -18z"/>
<path d="M1650 620 c0 -5 5 -10 11 -10 5 0 7 5 4 10 -3 6 -8 10 -11 10 -2 0
-4 -4 -4 -10z"/>
<path d="M1648 593 c7 -3 16 -2 19 1 4 3 -2 6 -13 5 -11 0 -14 -3 -6 -6z"/>
<path d="M2238 1769 c-55 -31 -36 -99 26 -99 32 0 34 2 27 27 -4 15 -13 29
-21 31 -9 3 -11 -1 -7 -11 8 -22 -8 -30 -23 -12 -18 21 6 47 39 43 18 -2 27
-10 29 -25 4 -27 32 -31 32 -5 0 49 -57 78 -102 51z"/>
<path d="M1904 1698 c-8 -13 -6 -781 3 -815 9 -37 46 -30 61 10 17 47 17 788
0 805 -15 15 -55 16 -64 0z m54 -65 c-10 -2 -28 -2 -40 0 -13 2 -5 4 17 4 22
1 32 -1 23 -4z m12 -23 c0 -5 -16 -10 -35 -10 -19 0 -35 5 -35 10 0 6 16 10
35 10 19 0 35 -4 35 -10z m-12 -27 c-10 -2 -28 -2 -40 0 -13 2 -5 4 17 4 22 1
32 -1 23 -4z m-41 -510 c-1 -93 -3 -17 -3 167 0 184 2 260 3 168 2 -93 2 -243
0 -335z m40 4 c-1 -89 -3 -13 -3 168 0 182 2 254 3 162 2 -93 2 -241 0 -330z"/>
<path d="M282 1688 c3 -7 20 -16 39 -19 l34 -5 -42 -18 c-53 -22 -55 -42 -5
-51 20 -3 47 -9 60 -12 16 -4 22 -1 22 11 0 11 -9 16 -30 16 -41 0 -37 12 10
32 22 9 40 21 40 26 0 8 -85 32 -117 32 -8 0 -13 -6 -11 -12z"/>
<path d="M640 1685 c-8 -10 -14 -64 -18 -155 l-5 -139 48 1 47 1 -4 137 c-2
96 -7 142 -17 154 -17 20 -35 20 -51 1z m40 -145 c0 -100 -2 -120 -15 -120
-12 0 -15 20 -15 120 0 100 3 120 15 120 13 0 15 -20 15 -120z"/>
<path d="M589 1638 c-18 -42 -20 -269 -3 -275 8 -3 10 14 7 59 -5 56 4 135 23
221 9 38 -11 34 -27 -5z"/>
<path d="M2273 1649 c-24 -6 -43 -16 -43 -23 0 -9 15 -10 65 -2 39 5 64 14 62
20 -5 15 -33 16 -84 5z"/>
<path d="M2336 1595 c4 -11 -6 -16 -45 -21 -34 -4 -51 -11 -51 -21 0 -11 11
-12 50 -7 42 6 50 4 50 -10 0 -9 7 -16 15 -16 16 0 18 12 9 59 -4 17 -13 31
-20 31 -8 0 -11 -6 -8 -15z"/>
<path d="M260 1556 c0 -9 8 -16 19 -16 10 0 39 -3 65 -6 38 -6 46 -4 46 10 0
11 -9 16 -27 16 -16 0 -45 3 -65 6 -31 5 -38 4 -38 -10z"/>
<path d="M250 1506 c0 -8 14 -26 31 -40 l31 -26 -31 0 c-17 0 -31 -4 -31 -10
0 -5 15 -10 34 -10 18 0 48 -3 65 -6 40 -8 43 18 4 32 l-28 11 28 13 c15 7 27
19 27 27 0 17 -6 17 -41 -4 -27 -16 -29 -16 -52 5 -27 26 -37 28 -37 8z"/>
<path d="M2240 1506 c0 -9 7 -16 15 -16 9 0 15 -9 15 -25 0 -14 -4 -25 -10
-25 -5 0 -10 -9 -10 -19 0 -18 3 -18 64 6 76 30 77 45 3 69 -29 9 -58 19 -64
22 -7 2 -13 -3 -13 -12z m88 -47 c-20 -13 -38 -11 -38 5 0 9 8 12 26 8 19 -3
22 -7 12 -13z"/>
<path d="M612 1355 c-2 -24 1 -25 48 -25 47 0 50 2 50 25 0 23 -3 25 -48 25
-44 0 -48 -2 -50 -25z"/>
<path d="M620 1258 l0 -63 45 0 45 -1 0 63 0 63 -45 0 -45 0 0 -62z m62 2 c-3
-31 -8 -40 -23 -40 -15 0 -19 7 -19 40 0 35 3 40 23 40 20 0 22 -4 19 -40z"/>
<path d="M617 1160 c4 -16 14 -20 49 -20 37 0 44 3 44 20 0 17 -7 20 -49 20
-44 0 -49 -2 -44 -20z"/>
<path d="M623 1050 l2 -80 44 0 c35 0 42 3 37 16 -3 9 -6 45 -6 80 l0 64 -40
0 -39 0 2 -80z m49 38 c6 -18 -3 -68 -13 -68 -5 0 -9 18 -9 40 0 37 13 55 22
28z m-2 -88 c0 -5 -4 -10 -10 -10 -5 0 -10 5 -10 10 0 6 5 10 10 10 6 0 10 -4
10 -10z"/>
<path d="M630 938 c0 -32 23 -128 31 -128 7 0 17 42 26 108 5 42 5 42 -26 42
-25 0 -31 -4 -31 -22z m39 -45 c0 -25 -1 -26 -9 -8 -12 27 -12 35 0 35 6 0 10
-12 9 -27z"/>
<path d="M1924 834 c3 -9 6 -19 6 -22 0 -9 20 21 20 31 0 4 -7 7 -16 7 -11 0
-14 -5 -10 -16z"/>
</g>
</svg>
